<svg width="32" height="11" viewBox="0 0 32 11" fill="none" xmlns="http://www.w3.org/2000/svg">
<g clip-path="url(#clip0)">
<path d="M3.10346 2.82043C2.29887 3.62502 1.49427 4.42962 0.68967 5.23422C0.68967 4.42962 0.574728 4.12311 1.14944 3.5484C1.87741 2.82043 2.68201 2.13077 3.37166 1.36449C3.60155 1.09629 3.98469 0.483261 3.25672 0.598204C2.98852 0.674832 2.72032 1.05797 2.56707 1.21123C1.91572 1.82426 1.3027 2.43728 0.68967 3.05031C0.68967 2.39897 0.881241 1.44112 0.68967 0.866403C0.421471 0.0618053 0.0383295 0.751461 0.0383295 1.21123C-0.0382988 2.93537 0.0383295 4.65951 0.0383295 6.42196C0.0383295 7.30319 0.0383295 8.18441 0.0383295 9.02732C0.0383295 9.29552 -0.076613 10.0618 0.191586 10.2151C0.881241 10.6365 0.68967 8.75912 0.68967 8.52924C0.68967 7.91621 0.459785 6.76679 0.68967 6.19207C0.919556 5.65568 1.87741 5.00433 2.26055 4.62119C2.60538 4.27637 3.02683 3.93154 3.33335 3.5484C3.40998 3.47177 3.52492 3.39514 3.56323 3.31851C3.71649 3.05031 3.52492 2.43728 3.10346 2.82043Z" fill="#F6C866"/>
<path d="M11.1878 5.11924C11.571 4.35296 11.9541 3.62499 12.3372 2.85871C12.6054 2.36062 12.8353 1.86254 13.1035 1.36445C13.1802 1.2112 13.4867 0.828054 13.4483 0.598169C13.2185 -0.551256 12.1457 1.78591 12.069 1.93917C11.6476 2.74376 11.2261 3.58667 10.8047 4.39127C10.1916 3.20353 9.69356 1.67097 8.88896 0.636483C8.42919 0.0617705 8.12268 0.521541 8.35256 1.05794C8.69739 1.82422 9.11885 2.55219 9.50199 3.28016C9.73188 3.73993 10.3832 4.58284 10.4215 5.08093C10.4598 5.42576 9.96176 6.00047 9.8085 6.30698C9.38705 7.11158 8.96559 7.91618 8.58245 8.72077C8.46751 8.95066 7.85448 10.4066 8.73571 9.79357C9.19548 9.48706 9.50199 8.33763 9.77019 7.83955C10.115 7.14989 10.4598 6.49855 10.8047 5.8089C11.2261 6.61349 11.6093 7.37978 12.0307 8.18438C12.2606 8.60583 12.4522 9.10392 12.7204 9.48706C12.912 9.75526 13.3334 10.1767 13.4483 9.56369C13.4867 9.3338 13.1802 8.98897 13.1035 8.7974C12.8736 8.33763 12.6054 7.83955 12.3756 7.37978C11.9924 6.69012 11.571 5.88553 11.1878 5.11924Z" fill="#F6C866"/>
<path d="M19.8851 9.87022C19.4253 9.87022 18.6973 8.83574 18.4291 8.56754C18.0077 8.14608 17.2031 7.60968 16.9732 7.1116C16.7433 6.61351 17.0498 6.46026 17.4713 6.65183C17.7012 6.76677 17.9311 7.1116 18.0843 7.26486C18.5824 7.76294 19.0422 8.22271 19.5403 8.7208C19.5403 7.41811 19.5403 6.11543 19.5403 4.85106C19.5403 3.96984 19.5403 3.0503 19.5403 2.16907C19.5403 1.74761 19.4253 1.05796 19.5403 0.636504C19.8085 -0.12978 20.2682 0.521561 20.613 0.828075C21.1878 1.40279 21.8774 1.9775 22.3755 2.59053C22.5671 2.82041 22.9885 3.3185 22.3372 3.35681C22.1073 3.35681 21.8774 3.0503 21.7625 2.89704C21.2261 2.36064 20.728 1.86256 20.1916 1.32616C20.1916 2.7821 20.1916 4.23804 20.1916 5.69397C20.1916 6.23037 20.5364 9.87022 19.8851 9.87022Z" fill="#F6C866"/>
<path d="M31.3793 0.253329C30.8429 0.0234443 29.3104 2.01578 28.9272 2.39892C28.3908 1.86252 27.8544 1.32613 27.318 0.789728C26.9732 0.4449 26.4368 -0.129812 26.2452 0.674785C26.1303 1.2495 26.2452 1.93915 26.2452 2.51387C26.2452 3.51003 26.2452 4.5062 26.2452 5.50237C26.2452 6.42191 26.2452 7.34145 26.2452 8.29931C26.2452 8.64413 26.1303 9.21885 26.2452 9.52536C26.3985 9.98513 26.7816 9.9085 26.8966 9.48705C26.9349 9.33379 26.8966 9.1039 26.8966 8.98896C26.8966 8.10774 26.8966 7.26482 26.8966 6.3836C26.8966 4.69777 26.8966 3.01195 26.8966 1.36444C27.2031 1.67095 27.5096 1.97747 27.8544 2.3223C28.046 2.51387 28.5441 3.24184 28.8889 3.24184C29.2337 3.24184 29.6552 2.59049 29.8851 2.39892C30.2682 2.0541 30.5747 1.70927 30.9196 1.40275C30.9196 4.00812 30.8429 6.57517 30.9196 9.18053C30.9196 9.56367 31.1878 10.3683 31.5709 9.67862C31.6859 9.44873 31.6092 8.98896 31.6092 8.75908C31.6092 7.1882 31.6092 5.579 31.6092 4.00812C31.6092 3.20352 31.6092 2.36061 31.6092 1.55601C31.6092 1.21118 31.7242 0.406586 31.3793 0.253329C31.2644 0.215015 31.4943 0.329958 31.3793 0.253329Z" fill="#F6C866"/>
</g>
<defs>
<clipPath id="clip0">
<rect width="31.6475" height="10" fill="white" transform="translate(0 0.253357)"/>
</clipPath>
</defs>
</svg>
