<svg width="33" height="10" viewBox="0 0 33 10" fill="none" xmlns="http://www.w3.org/2000/svg">
<g clip-path="url(#clip0)">
<path d="M3.50392 9.9212C2.79526 9.9212 3.14959 5.19679 3.14959 4.56687C3.14959 3.85821 3.14959 3.81884 2.63778 3.30703C2.00786 2.63774 1.37793 2.00781 0.748013 1.33852C0.748013 3.46451 0.748013 5.62986 0.748013 7.75585C0.748013 8.07081 0.984233 9.88183 0.393682 9.88183C-0.196869 9.88183 0.0393516 8.18892 0.0393516 7.87396C0.0393516 6.496 0.0393516 5.11805 0.0393516 3.77947C0.0393516 2.79522 -0.118129 1.69285 0.0393516 0.708602C0.275572 -0.433131 1.14171 0.787342 1.53541 1.18104C2.16534 1.85033 3.2677 2.63774 3.74014 3.42514C3.93699 3.7401 3.85825 4.17317 3.85825 4.56687C3.85825 5.27553 3.85825 6.02356 3.85825 6.73222C3.81888 7.12593 4.13384 9.9212 3.50392 9.9212Z" fill="#F6C866"/>
<path d="M12.4409 2.83457C11.8897 2.28339 11.3386 1.73221 10.7874 1.18103C10.5118 0.905438 9.52754 -0.472515 9.13384 0.196777C8.89762 0.629848 9.09447 1.65347 9.09447 2.12591C9.09447 3.11016 9.09447 4.13379 9.09447 5.11804C9.09447 6.45662 9.09447 7.75583 9.09447 9.09442C9.09447 9.29127 9.01573 9.6456 9.21258 9.80308C9.60628 10.1574 9.76376 9.6456 9.80313 9.37001C9.96061 8.42512 9.76376 7.4015 9.80313 6.49599C9.8425 5.78733 10.3543 5.47237 10.8661 4.96056C11.1023 4.68497 12.874 3.26764 12.4409 2.83457ZM9.76376 5.07867C9.76376 3.77945 9.76376 2.44087 9.76376 1.14166C10.1181 1.49599 10.4724 1.85032 10.7874 2.20465C10.9449 2.36213 11.6929 2.91331 11.6929 3.11016C11.6929 3.30701 10.8661 3.93693 10.7086 4.09442C10.4331 4.40938 10.1181 4.72434 9.76376 5.07867Z" fill="#F6C866"/>
<path d="M23.5039 9.99995C23.1102 9.99995 22.6378 9.25192 22.4016 9.05507C22.0079 8.66137 21.3779 7.71649 20.8661 7.51964C20.5905 7.40153 20.6299 7.48027 20.3149 7.79523C19.7638 8.34641 19.2519 8.85822 18.7008 9.4094C18.3858 9.72436 17.9921 10.2362 17.7165 9.56688C17.6378 9.37003 17.7165 8.93696 17.7165 8.74011C17.7165 7.36216 17.7165 5.98421 17.7165 4.56688C17.7165 3.30704 17.6771 2.0472 17.7165 0.787355C17.7165 0.472395 17.6378 -4.63901e-05 18.1102 0.0393237C18.4645 0.0786938 18.9764 0.826725 19.1732 1.02358C19.5275 1.37791 20.1181 2.24405 20.5905 2.4409C20.9055 2.55901 20.9055 2.40153 21.2205 2.08657C21.7323 1.57476 22.2441 1.06295 22.7559 0.551135C23.0315 0.275544 24.1732 -0.511857 23.7401 0.551135C23.5433 0.984206 22.8346 1.45665 22.4803 1.81098C22.0472 2.24405 21.5748 2.95271 21.0236 3.26767C20.2362 3.70074 18.937 1.81098 18.3858 1.2598C18.3858 3.77948 18.3858 6.29917 18.3858 8.77948C18.8976 8.26767 19.3701 7.79523 19.8819 7.28342C20.3149 6.85035 20.5118 6.45665 21.1023 6.85035C21.7323 7.24405 22.2441 7.99208 22.7559 8.50389C22.874 8.54326 24.4882 9.99995 23.5039 9.99995Z" fill="#F6C866"/>
<path d="M32.2834 0.0392981C31.7323 -0.196922 30.1575 1.85032 29.7638 2.24402C29.252 1.73221 28.7401 1.2204 28.2283 0.708589C27.9134 0.393629 27.3228 -0.393773 27.0472 0.393629C26.8897 0.826699 27.0472 1.53536 27.0472 1.96843C27.0472 2.91331 27.0472 3.81883 27.0472 4.76371C27.0472 5.70859 27.0472 6.65347 27.0472 7.63772C27.0472 8.1889 26.9291 8.85819 27.0472 9.40938C27.1653 9.99993 27.6378 9.99993 27.7165 9.40938C27.8346 8.62197 27.7165 7.67709 27.7165 6.85032C27.7165 6.25977 27.5984 5.59048 27.9134 5.11804C28.3464 4.40938 29.2126 3.81883 29.7638 3.26764C30.3543 3.8582 31.6142 4.68497 31.811 5.47237C32.126 6.73221 31.496 8.22827 31.811 9.48812C31.9685 9.99993 32.3622 10.0393 32.4803 9.48812C32.559 9.13379 32.4803 8.62197 32.4803 8.22827C32.4803 6.6141 32.4803 5.0393 32.4803 3.42512C32.4803 2.67709 32.4803 1.92906 32.4803 1.14166C32.5197 0.90544 32.6378 0.196778 32.2834 0.0392981C32.1653 -7.19987e-05 32.4016 0.118038 32.2834 0.0392981ZM27.7165 4.29127C27.7165 3.26764 27.7165 2.20465 27.7165 1.18103C27.9527 1.41725 29.2913 2.4015 29.2913 2.75583C29.2913 3.11016 27.9921 4.05505 27.7165 4.29127ZM30.2756 2.75583C30.7874 2.24402 31.2992 1.73221 31.8504 1.18103C31.8504 2.20465 31.8504 3.26764 31.8504 4.29127C31.2992 3.77945 30.7874 3.26764 30.2756 2.75583Z" fill="#F6C866"/>
</g>
<defs>
<clipPath id="clip0">
<rect width="32.5591" height="10" fill="white"/>
</clipPath>
</defs>
</svg>
